<svg xmlns="http://www.w3.org/2000/svg" xmlns:xlink="http://www.w3.org/1999/xlink" viewBox="0 0 130.32 139.48"><defs><style>.cls-1{fill:url(#Degradado_sin_nombre_30);}.cls-2{fill:url(#Degradado_sin_nombre_33);}.cls-3{fill:url(#Degradado_sin_nombre_33-2);}.cls-4{fill:#717273;}.cls-10,.cls-11,.cls-12,.cls-13,.cls-14,.cls-15,.cls-16,.cls-17,.cls-4,.cls-5,.cls-9{stroke:#fff;stroke-miterlimit:8.2;}.cls-10,.cls-11,.cls-12,.cls-13,.cls-14,.cls-15,.cls-17,.cls-4,.cls-5,.cls-9{stroke-width:0.27px;}.cls-5{fill:#255283;}.cls-6{fill:url(#Degradado_sin_nombre_35);}.cls-7{fill:url(#Degradado_sin_nombre_35-2);}.cls-8{fill:url(#Degradado_sin_nombre_35-3);}.cls-9{fill:url(#Degradado_sin_nombre_36);}.cls-10{fill:url(#Degradado_sin_nombre_36-2);}.cls-11{fill:url(#Degradado_sin_nombre_41);}.cls-12{fill:url(#Degradado_sin_nombre_41-2);}.cls-13{fill:url(#Degradado_sin_nombre_41-3);}.cls-14{fill:url(#Degradado_sin_nombre_41-4);}.cls-15,.cls-16{fill:#fff;}.cls-16{stroke-width:0.27px;}.cls-17{fill:url(#Degradado_sin_nombre_41-5);}</style><linearGradient id="Degradado_sin_nombre_30" x1="-433.14" y1="-278.39" x2="-422.36" y2="-278.39" gradientTransform="matrix(2.05, 0, 0, -2.05, 996.66, -452.39)" gradientUnits="userSpaceOnUse"><stop offset="0" stop-color="#2d052b"/><stop offset="0.01" stop-color="#2e062d"/><stop offset="0.18" stop-color="#3f154b"/><stop offset="0.36" stop-color="#4c2263"/><stop offset="0.55" stop-color="#562a75"/><stop offset="0.75" stop-color="#5b2f7f"/><stop offset="1" stop-color="#5d3182"/></linearGradient><linearGradient id="Degradado_sin_nombre_33" x1="-443.72" y1="-278.39" x2="-432.94" y2="-278.39" gradientTransform="matrix(2.05, 0, 0, -2.05, 996.66, -452.39)" gradientUnits="userSpaceOnUse"><stop offset="0" stop-color="#2d052b"/><stop offset="0.08" stop-color="#3a1143"/><stop offset="0.17" stop-color="#471d5a"/><stop offset="0.28" stop-color="#51266c"/><stop offset="0.42" stop-color="#582c79"/><stop offset="0.59" stop-color="#5c3080"/><stop offset="1" stop-color="#5d3182"/></linearGradient><linearGradient id="Degradado_sin_nombre_33-2" x1="-443.73" y1="-258.41" x2="-432.93" y2="-258.41" xlink:href="#Degradado_sin_nombre_33"/><linearGradient id="Degradado_sin_nombre_35" x1="-475.47" y1="-258.41" x2="-464.68" y2="-258.41" gradientTransform="matrix(2.05, 0, 0, -2.05, 996.66, -452.39)" gradientUnits="userSpaceOnUse"><stop offset="0" stop-color="#a15313"/><stop offset="0.21" stop-color="#b75d18"/><stop offset="0.5" stop-color="#cf681d"/><stop offset="0.78" stop-color="#de6f20"/><stop offset="1" stop-color="#e37121"/></linearGradient><linearGradient id="Degradado_sin_nombre_35-2" x1="-475.47" y1="-278.39" x2="-464.68" y2="-278.39" xlink:href="#Degradado_sin_nombre_35"/><linearGradient id="Degradado_sin_nombre_35-3" x1="-486.05" y1="-278.39" x2="-475.26" y2="-278.39" xlink:href="#Degradado_sin_nombre_35"/><linearGradient id="Degradado_sin_nombre_36" x1="-454.31" y1="-278.07" x2="-443.51" y2="-278.07" gradientTransform="matrix(2.05, 0, 0, -2.05, 996.66, -452.39)" gradientUnits="userSpaceOnUse"><stop offset="0" stop-color="#dededd"/><stop offset="1" stop-color="#747272"/></linearGradient><linearGradient id="Degradado_sin_nombre_36-2" x1="-464.89" y1="-278.07" x2="-454.1" y2="-278.07" xlink:href="#Degradado_sin_nombre_36"/><linearGradient id="Degradado_sin_nombre_41" x1="-454.31" y1="-265.04" x2="-443.51" y2="-265.04" gradientTransform="matrix(2.05, 0, 0, -2.05, 996.66, -452.39)" gradientUnits="userSpaceOnUse"><stop offset="0" stop-color="#255283"/><stop offset="1" stop-color="#1c3852"/></linearGradient><linearGradient id="Degradado_sin_nombre_41-2" x1="-464.89" y1="-265.04" x2="-454.1" y2="-265.04" xlink:href="#Degradado_sin_nombre_41"/><linearGradient id="Degradado_sin_nombre_41-3" x1="-454.31" y1="-237.59" x2="-443.51" y2="-237.59" xlink:href="#Degradado_sin_nombre_41"/><linearGradient id="Degradado_sin_nombre_41-4" x1="-464.89" y1="-237.59" x2="-454.1" y2="-237.59" xlink:href="#Degradado_sin_nombre_41"/><linearGradient id="Degradado_sin_nombre_41-5" x1="-464.99" y1="-254.57" x2="-443.42" y2="-254.57" xlink:href="#Degradado_sin_nombre_41"/></defs><g id="Capa_2" data-name="Capa 2"><g id="Logo_BizPro" data-name="Logo BizPro"><path id="path4626-8-0-5-3-7-8-56" class="cls-1" d="M108.57,138.14l21.7-12.27V98.92l-21.7,12.27Z"/><path id="path4626-8-0-5-3-7-8-6-2" class="cls-2" d="M108.57,138.14l-21.7-12.27V98.92l21.7,12.27Z"/><path id="path4626-8-0-5-3-7-8-5-5" class="cls-3" d="M86.87,98.92l21.7-13.36V56.22L86.87,69.58Z"/><path id="path4626-8-0-5-3-7-8-6-5-9" class="cls-4" d="M86.87,98.92,65.17,85.56V56.22l21.7,13.36Z"/><path id="path4626-8-0-5-3-7-8-5-3-8" class="cls-5" d="M43.47,98.92l21.7-13.36V56.22L43.47,69.58Z"/><path id="path4626-8-0-5-3-7-8-6-5-0-1" class="cls-6" d="M43.47,98.92,21.77,85.56V56.22l21.7,13.36Z"/><path id="path4626-8-0-5-3-7-8-5-3-3-2" class="cls-7" d="M21.77,138.14l21.7-12.27V98.92l-21.7,12.27Z"/><path id="path4626-8-0-5-3-7-8-6-5-0-8-7" class="cls-8" d="M21.77,138.14.07,125.87V98.92l21.7,12.27Z"/><path id="path4626-8-0-5-3-7-8-5-3-3-9-6" class="cls-9" d="M65.17,139.23l21.7-13.36V96.53l-21.7,13.36Z"/><path id="path4626-8-0-5-3-7-8-6-5-0-8-9-7" class="cls-10" d="M65.17,139.23l-21.7-13.36V96.53l21.7,13.36Z"/><path id="path4626-8-0-5-3-7-8-5-3-2-4" class="cls-11" d="M65.17,112.51l21.7-13.36V69.81L65.17,83.17Z"/><path id="path4626-8-0-5-3-7-8-6-5-0-3-7" class="cls-12" d="M65.17,112.51,43.47,99.15V69.81l21.7,13.36Z"/><path id="path4626-8-0-5-3-7-8-8-1" class="cls-13" d="M65.17,56.22l21.7-13.36V13.52L65.17,26.88Z"/><path id="path4626-8-0-5-3-7-8-6-3-8" class="cls-14" d="M65.17,56.22,43.47,42.86V13.52l21.7,13.36Z"/><path id="path4626-8-0-5-3-7-8-5-37-5" class="cls-15" d="M86.87,69.81l21.53-14-21.53-13L65.17,56.22Z"/><path id="path4626-8-0-5-3-7-8-5-37-7-7" class="cls-15" d="M43.47,69.81l21.7-13.59L43.47,42.86,22,55.87Z"/><path id="path4626-8-0-5-3-7-8-5-37-7-3-4" class="cls-15" d="M65.17,27.11l21.51-14L65.17.16l-21.51,13Z"/><path id="path4626-8-0-5-3-7-8-5-37-7-3-2-9" class="cls-16" d="M108.57,111.19l21.49-12.62-21.49-13L87.24,98.87Z"/><path id="path4626-8-0-5-3-7-8-5-37-7-3-2-0-7" class="cls-16" d="M21.59,110.89,43.08,98.83,21.77,85.57.26,98.57Z"/><path id="path4626-8-0-5-3-7-8-5-5-2" class="cls-17" d="M65.17,83.17l21.7-13.36L65.17,56.22,43.47,69.81Z"/></g></g></svg>